<svg xmlns="http://www.w3.org/2000/svg" viewBox="0 0 320 80" fill="none">
  <defs>
    <linearGradient id="logoGrad" x1="0%" y1="0%" x2="100%" y2="100%">
      <stop offset="0%" style="stop-color:#4F46E5;stop-opacity:1" />
      <stop offset="100%" style="stop-color:#7C3AED;stop-opacity:1" />
    </linearGradient>
  </defs>

  <!-- Icon/Symbol -->
  <g>
    <!-- Background circle -->
    <circle cx="40" cy="40" r="35" fill="url(#logoGrad)"/>

    <!-- Quote marks -->
    <g fill="white" opacity="0.95">
      <!-- Left quote -->
      <path d="M25 28 Q23 28 23 30 L23 36 Q23 38 25 38 L29 38 L27 44 L31 44 L33 38 Q33 36 31 36 L27 36 L27 30 Q27 28 25 28 Z"/>

      <!-- Right quote -->
      <path d="M45 28 Q43 28 43 30 L43 36 Q43 38 45 38 L49 38 L47 44 L51 44 L53 38 Q53 36 51 36 L47 36 L47 30 Q47 28 45 28 Z"/>

      <!-- Sparkles -->
      <circle cx="35" cy="52" r="2"/>
      <circle cx="45" cy="52" r="2"/>
      <circle cx="40" cy="56" r="1.5"/>
    </g>
  </g>

  <!-- Text: "Captions For You" -->
  <text x="90" y="50" font-family="system-ui, -apple-system, sans-serif" font-size="28" font-weight="700" fill="url(#logoGrad)">
    Captions For You
  </text>

  <!-- Subtitle -->
  <text x="90" y="66" font-family="system-ui, -apple-system, sans-serif" font-size="12" font-weight="500" fill="#6B7280" letter-spacing="0.5">
    AI Caption Generator
  </text>
</svg>
