<svg xmlns="http://www.w3.org/2000/svg" viewBox="0 0 64 64">
  <defs>
    <linearGradient id="grad" x1="0%" y1="0%" x2="100%" y2="100%">
      <stop offset="0%" style="stop-color:#4F46E5;stop-opacity:1" />
      <stop offset="100%" style="stop-color:#7C3AED;stop-opacity:1" />
    </linearGradient>
  </defs>
  
  <!-- Background circle -->
  <circle cx="32" cy="32" r="30" fill="url(#grad)"/>
  
  <!-- Quote mark design (representing captions) -->
  <g fill="white" opacity="0.95">
    <!-- Left quote -->
    <path d="M18 20 Q16 20 16 22 L16 28 Q16 30 18 30 L22 30 L20 36 L24 36 L26 30 Q26 28 24 28 L20 28 L20 22 Q20 20 18 20 Z"/>
    
    <!-- Right quote -->
    <path d="M38 20 Q36 20 36 22 L36 28 Q36 30 38 30 L42 30 L40 36 L44 36 L46 30 Q46 28 44 28 L40 28 L40 22 Q40 20 38 20 Z"/>
    
    <!-- Sparkle dots -->
    <circle cx="28" cy="44" r="2"/>
    <circle cx="36" cy="44" r="2"/>
    <circle cx="32" cy="48" r="1.5"/>
  </g>
</svg>
